<?xml version="1.0" encoding="utf-8"?>
<!-- Generator: Adobe Illustrator 24.3.0, SVG Export Plug-In . SVG Version: 6.00 Build 0)  -->
<svg version="1.1" id="Layer_1" xmlns="http://www.w3.org/2000/svg" xmlns:xlink="http://www.w3.org/1999/xlink" x="0px" y="0px"
	 viewBox="0 0 648 529" style="enable-background:new 0 0 648 529;" xml:space="preserve">
<style type="text/css">
	.st0{fill:#FFFFFF;}
	.st1{fill-rule:evenodd;clip-rule:evenodd;fill:#0D2192;}
	.st2{fill:#0D2192;}
	.st3{opacity:8.000000e-02;fill:#FFFFFF;enable-background:new    ;}
	.st4{fill:#7979AC;}
</style>
<desc>Created with Sketch.</desc>
<circle class="st0" cx="320.8" cy="260.4" r="234.8"/>
<g id="Artboard">
	<path id="dapr" class="st1" d="M227.8,383.5h-26.9v-8.4c-2.6,3.2-5.2,5.6-7.8,7.1c-4.6,2.6-9.8,3.9-15.7,3.9
		c-9.5,0-17.9-3.3-25.3-9.8c-8.8-7.8-13.2-18-13.2-30.8c0-13,4.5-23.4,13.5-31.2c7.2-6.2,15.4-9.3,24.7-9.3c5.4,0,10.5,1.1,15.2,3.4
		c2.7,1.3,5.5,3.5,8.4,6.5v-54.5h26.9V383.5z M201.7,345.5c0-4.8-1.7-8.9-5.1-12.3c-3.4-3.4-7.5-5-12.3-5c-5.4,0-9.8,2-13.2,6.1
		c-2.8,3.3-4.2,7-4.2,11.2c0,4.2,1.4,8,4.2,11.2c3.4,4,7.8,6.1,13.2,6.1c4.9,0,9-1.7,12.3-5C200,354.4,201.7,350.3,201.7,345.5z
		 M328.7,383.5h-26.9v-8.4c-2.6,3.2-5.2,5.6-7.8,7.1c-4.6,2.6-9.8,3.9-15.7,3.9c-9.5,0-17.9-3.3-25.3-9.8
		c-8.8-7.8-13.2-18-13.2-30.8c0-13,4.5-23.4,13.5-31.2c7.2-6.2,15.4-9.3,24.7-9.3c5.4,0,10.5,1.1,15.2,3.4c2.7,1.3,5.5,3.5,8.4,6.5
		v-7.5h26.9V383.5z M302.6,345.5c0-4.8-1.7-8.9-5.1-12.3c-3.4-3.4-7.5-5-12.3-5c-5.4,0-9.8,2-13.2,6.1c-2.8,3.3-4.2,7-4.2,11.2
		c0,4.2,1.4,8,4.2,11.2c3.4,4,7.8,6.1,13.2,6.1c4.9,0,9-1.7,12.3-5C300.9,354.4,302.6,350.3,302.6,345.5z M432.5,345.5
		c0,13-4.5,23.4-13.5,31.2c-7.2,6.2-15.4,9.3-24.7,9.3c-5.4,0-10.5-1.1-15.2-3.4c-2.7-1.3-5.5-3.5-8.4-6.5v45.5h-26.9V307.4h26.9
		v8.4c2.4-3.2,5-5.5,7.8-7.1c4.6-2.6,9.8-3.9,15.7-3.9c9.5,0,17.9,3.3,25.3,9.8C428.1,322.5,432.5,332.8,432.5,345.5z M404.6,345.5
		c0-4.3-1.4-8.1-4.1-11.2c-3.4-4-7.9-6.1-13.3-6.1c-4.9,0-9,1.7-12.3,5c-3.4,3.3-5,7.4-5,12.3c0,4.8,1.7,8.9,5.1,12.3
		c3.4,3.4,7.5,5,12.3,5c5.4,0,9.8-2,13.2-6.1C403.2,353.4,404.6,349.7,404.6,345.5z M501.7,332.3c-3.8-1.8-7.6-2.7-11.5-2.7
		c-8.9,0-14.6,3.6-17.2,10.8c-1,2.6-1.5,6.1-1.5,10.6v32.5h-26.9v-76.1h26.9v12.5c2.8-4.4,5.9-7.6,9.2-9.6c4.4-2.6,9.7-3.9,15.7-3.9
		c1.4,0,3.2,0.1,5.2,0.2V332.3z"/>
	<polygon id="tie" class="st2" points="343.5,384.1 370.6,384.1 372.9,447.6 357.1,458.8 341.2,447.6 	"/>
	<path id="Rectangle-4" class="st2" d="M284.8,192.3h98.7c1.1,0,2,0.9,2,2v68.3c0,1.1-0.9,2-2,2h-98.7c-1.1,0-2-0.9-2-2v-68.3
		C282.8,193.2,283.7,192.3,284.8,192.3z"/>
	<rect id="Rectangle-4_1_" x="282.8" y="192.3" class="st3" width="38" height="72.3"/>
	<path id="Rectangle-3" class="st2" d="M254.1,259.9h158.8c2.1,0,3.7,1.7,3.7,3.7v9.9c0,2.1-1.7,3.7-3.7,3.7H254.1
		c-2.1,0-3.7-1.7-3.7-3.7v-9.9C250.4,261.6,252.1,259.9,254.1,259.9z"/>
	<rect id="Rectangle-4_2_" x="250.4" y="259.9" class="st3" width="51.4" height="21.4"/>
</g>
<g>
	<g>
		<g>
			<g>
				<path class="st4" d="M141.1,217.1c1.3-1.5,1.9-2.3,3.2-3.7c1.2,8,1.1,14.7-0.5,20.6c-1.6,5.9-4.6,12-9,18.6
					c-3.3,5-6.8,8.6-10.8,10.7c-3.9,2.1-7.6,2.7-11.2,1.8c-3.5-0.9-6.8-2.9-9.6-6.1c-2.9-3.2-5-7.2-6.1-12.1
					c-0.8-3.7-1-7.8-0.4-12.1c0.6-4.4,1.7-8.3,3.4-11.9c1.6-3.5,3.6-6.7,5.8-9.4c2.2-2.7,4.5-4.6,6.7-5.7c3.7-2,6.9-2,9.6-0.4
					c2.7,1.6,4.3,4.2,4.8,7.7c1.7,11.2-3.6,22.3-9.7,31.3c2.1,1.2,4.4,1.7,7,1.6c2.5-0.1,4.9-1.1,7.2-2.9c4-3.3,6.6-7.4,8.2-12.6
					C141.3,227.4,141.8,222.3,141.1,217.1z M113.3,243.2c0.1,0.1,0.2,0.2,0.4,0.3c0.2,0.2,0.3,0.3,0.3,0.3c2.4-3.7,4-7.2,4.9-10.6
					c0.9-3.3,1.2-6.2,0.8-8.5c-0.4-2.4-1.1-4.4-2-6.1c-1-1.7-2-3-3.2-3.7c-1.2-0.7-2.2-0.8-3-0.4c-1.6,0.9-2.8,2.9-3.8,5.9
					c-0.9,3-1.1,6.4-0.5,9.9C108,235,110,239.3,113.3,243.2z"/>
			</g>
			<g>
				<path class="st4" d="M176.8,147.9c-7.8,2.5-11.7,3.9-19.6,7.1c-0.6-8.8-4.7-11.1-12-6c-3.9,2.7-7.1,6.5-9.3,10.8
					c-1.1,2.2-1.7,4.5-1.6,6.7c0.1,2.3,0.7,3.8,1.9,4.6c1.1,0.8,2,1.2,2.7,1.3c0.7,0.1,1.9,0.1,3.6,0c3.1-0.2,7.5-1.5,13.2-3.3
					c8.2-2.4,13.3-3.4,15.4-3.5c5.1-0.7,8.9,0.1,11.5,2.1c7.1,5.7,7.2,13.6,2.3,23.7c-5,10.3-12.7,18.6-21.1,25.7
					c-8.7,7.5-16.7,10.2-23.2,7.1c-3.2-1.6-5.4-4.3-6.4-8.3c-1-4-0.4-8.6,1.9-13.5c6.1-1.6,9.1-2.3,15.1-3.5
					c-2.8,4.5-4.1,8.4-4.2,11.4c-0.1,3,1,4.8,3,5.3c2.3,0.6,5.2-0.5,8.7-3.3c3.5-2.8,6.4-6.3,8.8-10.3c2.8-4.7,3.8-9.3,2.8-13.6
					c-0.9-3.8-5.3-5.3-13.6-3.2c-1.4,0.4-3.6,1.1-6.6,2.1c-3,1-5.5,1.9-7.4,2.6c-6.1,2-11.2,3-15.2,3c-5.4,0.1-9.4-1.7-11.3-6.2
					c-1.9-4.5-0.9-10.7,3.1-18c4.5-8.3,12.4-16.9,20.1-22.3c6.1-4.2,12-7.1,17.4-8.5c5.5-1.4,10.1-1.2,13.5,0.6
					C173.6,140,175.7,143.3,176.8,147.9z"/>
			</g>
			<g>
				<path class="st4" d="M256,143.6c1.9-0.5,2.9-0.8,4.8-1.3c-1.6,7.3-5.6,13.3-11.8,18.2c-5.1,4-10,6.2-15.2,6.5
					c-5.3,0.3-8.7-1.8-10.2-6.5c-0.1-0.4-0.2-0.9-0.3-1.3c-0.4-2-0.8-4.7-1.3-7.9c-0.5-3.3-1-6.2-1.4-8.7c-0.4-2.5-0.8-4.9-1.1-7
					c-0.5-3.7-2-5-4.7-3.6c-2.8,1.4-5.4,4.4-7.6,8.9c-0.8,1.7-1.4,3.4-1.8,5.1c2.1,10.8,4.4,21.4,6.9,32.2c-5.8,3.2-8.7,5-14.3,8.7
					c-6.6-21.1-11.9-42.3-15.9-64c7.3-4,10.9-5.9,18.4-9.3c1.1,10.1,1.7,15.1,3.3,25c2.3-3.9,5.3-7.3,9-10.1
					c3.7-2.8,7.5-4.6,11.1-5.3c3.6-0.8,6.8-0.1,9.4,2c2.6,2.1,3.9,5.6,4.3,10.4c0.6,8.5,1.4,15.1,1.9,19.6c0.4,3.7,2.1,4.9,4.9,3.8
					c2.8-1.1,5.4-3.7,8.1-7.7C254.5,148.4,255.6,146,256,143.6z"/>
			</g>
			<g>
				<path class="st4" d="M320.2,115c0.2,1.2,0.3,1.8,0.4,3.1c-5.6,3.4-10.8,6-15.7,7.9c-0.4,4-1.7,7.7-3.7,11.1
					c-2,3.4-4.2,6.2-6.8,8.5c-2.6,2.3-5.5,4.3-8.6,6.1c-3.1,1.8-6.2,3-9.4,3.6c-3.1,0.6-6.2,1-9.2,1c-5.5-0.1-9.9-1.4-13.2-4
					c-3.3-2.6-5.4-6.1-6-10.4c-0.6-4.5,0.3-9.3,2.9-14.3c2.6-5,6.8-9.5,12.6-13.1c3.1-2,6.5-3.6,10.2-4.8c3.7-1.2,7.5-2,11.3-2.2
					c3.8-0.3,7.3,0.1,10.6,1.2c3.3,1.1,5.8,2.9,7.6,5.3c1.3,1.8,2,3.8,2.2,6.2C310.3,118.9,315.3,117.3,320.2,115z M289.3,129.5
					c0-0.1,0-0.2,0-0.4c-4.2,0-8.5-0.7-13.2-2.2c2.3-3,3.5-4.5,5.9-7.5c1.9,0.8,3.9,1.3,6.2,1.6c-1-2.2-2.6-4-4.8-5.4
					c-2.2-1.3-4.7-1.9-7.3-1.6c-2.6,0.3-5.1,1.8-7.2,4.6c-2,2.7-3.3,6.3-3.9,10.8c-0.6,4.4,0,8.6,1.6,12.6c1.6,3.9,4.2,6.2,7.7,6.9
					c1.6,0.5,3.2,0.3,4.8-0.4c1.6-0.7,3.1-1.8,4.5-3.2c1.4-1.4,2.6-3.5,3.7-6.3C288.3,136.3,289,133.2,289.3,129.5z"/>
			</g>
			<g>
				<path class="st4" d="M340.9,108.8c7.6-2.5,14.1-2.6,19.1-0.6c5,2,8.5,5.1,10.5,9.2c2,4,2.4,8.2,1.4,12.4
					c-1.5,6.2-4.7,11.2-9.2,15.3c-2.5,2.4-5.4,4-8.3,5.1c-3.7,1.4-7.8,2.1-12.4,1.7c-2.5-0.2-5.2-0.8-8.2-1.8c-3-1-5.1-1.9-6.4-3.1
					c-3,10.3-4.4,15.5-6.7,25.8c-6,0-9,0.1-15.1,0.6c3.6-23.2,9.3-45.7,16.1-68.1c8.1,0,12.1,0.2,20.2,0.8
					C341.5,107.2,341.3,107.7,340.9,108.8z M352.2,132.2c2.8-6.7,3.5-12.1,1.8-16.1c-1.9-4.5-7-5.8-14.8-3
					c-3.8,9.5-7.2,19.1-10.2,28.8c1.7,1.7,3.5,2.8,5.5,3.3c2,0.4,3.9,0.4,5.6-0.2c1.8-0.6,3.4-1.5,5-2.8
					C348.1,139.8,350.4,136.5,352.2,132.2z"/>
			</g>
			<g>
				<path class="st4" d="M496.8,173.4c-2.2,2.6-4.8,4.7-7.1,6.2c-2.8,1.9-6,3.7-9.3,5.1c-3,1.3-6.7,2.6-10.8,3.4
					c-4.3,0.9-8.4,1.2-12,1c-3.9-0.1-8.1-0.9-12.6-2.1c-4.2-1.1-8.5-3.1-13.2-5.8c-3.1-1.8-5.7-3.7-7.7-5.4
					c-2.1-1.8-3.8-3.8-5.1-6.1c-1.2-2.1-1.9-4.4-1.9-6.9c-0.1-2.7,0.7-5.5,1.8-8.3c1-2.4,2.2-4.9,3.8-7.2c7.8-10.7,19.3-15,31.4-19
					c8.7,4,13,6.2,21.5,11.1c-12.6,2.3-25.5,4.6-34.7,14.4c-2,2.3-3.5,4.5-4.7,6.8c-1.2,2.2-1.8,4.3-1.8,6.2c0,1.9,0.2,3.6,0.8,5.2
					c0.6,1.5,1.6,2.8,3.1,3.7c1.5,0.9,3.3,1.6,5.3,1.9c2,0.3,4.4,0.2,7.3-0.3c2.9-0.5,6-1.6,9.4-2.8c4.2-1.6,8.5-3.8,12.6-6.8
					c4.2-3,7.8-6.5,10.5-10.3c2.7-3.8,3.1-8.3,0.9-13c-2.2-4.8-5.9-9-11.1-12.6c-5.2-3.6-11.1-6.4-17.5-8.5
					c-6.4-2.1-12.3-2.9-17.2-2.6c-4.6,0.3-7.9,1.9-9.8,4.6c-2,2.7-2.2,5.8-0.8,9.4c-8.1-1.1-12.2-1.5-20.2-1.9
					c1.6-15.1,15.2-17.3,27.5-18.7c8.3,0,17.3,2,26.5,5.8c8.4,3.5,17.5,9.1,24.2,15.3c6.7,6.1,11.3,13,13.5,20.1
					C501.8,162.4,500.8,168.7,496.8,173.4z"/>
			</g>
			<g>
				<path class="st4" d="M529.2,258.8c1.1,2,1.6,3,2.7,5.1c-7.7-0.7-14.8-3.8-21.3-9c-5.7-4.6-9.3-9.2-10.7-14.3
					c-1.7-6.1,0.4-11,6.7-14.4c0.5-0.3,1.1-0.6,1.7-0.8c4.1-1.6,10.2-3.9,18.6-6.8c3.5-1.2,4-3.2,1.8-6.1c-2.3-3-6.2-5.4-11.6-7
					c-3.2-1-5.9-1.2-8.2-0.9c-9.4,4.3-18.7,8.9-27.8,13.9c-4.9-5.2-7.5-7.7-12.8-12.5c13.3-8.4,26.9-16.3,41.1-23.1
					c5.9,5.9,8.7,9,14.2,15.5c-2.7,1-4,1.6-6.6,2.7c3.7,1,7.4,2.7,11,5.2c3.6,2.4,6.5,5.3,8.8,8.4c2.3,3.2,3.9,6.3,4.7,9.5
					c0.8,3.1,0.5,6-1.1,8.4c-1.6,2.5-4.4,4.2-8.3,5.2c-9.8,2.5-16.1,4.5-19,5.4c-3.6,1.2-4.4,3.1-2.5,5.9c1.9,2.8,5.2,5.1,9.9,7.2
					C523.8,258,526.7,258.8,529.2,258.8z"/>
			</g>
		</g>
	</g>
</g>
</svg>
